<svg xmlns="http://www.w3.org/2000/svg" width="1200" height="800">
  <defs>
    <linearGradient id="g" x1="0" y1="0" x2="1" y2="1">
      <stop offset="0%" stop-color="#00c6ff"/>
      <stop offset="100%" stop-color="#0072ff"/>
    </linearGradient>
  </defs>
  <rect width="100%" height="100%" fill="url(#g)"/>
  <g transform="translate(100,350)">
    <!-- Array boxes -->
    <rect x="0" y="0" width="70" height="70" rx="10" fill="#fff" opacity="0.7"/><text x="35" y="45" text-anchor="middle" font-family="Poppins" font-size="24" fill="#222">0</text>
<rect x="80" y="0" width="70" height="70" rx="10" fill="#fff" opacity="0.7"/><text x="115" y="45" text-anchor="middle" font-family="Poppins" font-size="24" fill="#222">5</text>
<rect x="160" y="0" width="70" height="70" rx="10" fill="#fff" opacity="0.7"/><text x="195" y="45" text-anchor="middle" font-family="Poppins" font-size="24" fill="#222">10</text>
<rect x="240" y="0" width="70" height="70" rx="10" fill="#fff" opacity="0.7"/><text x="275" y="45" text-anchor="middle" font-family="Poppins" font-size="24" fill="#222">15</text>
<rect x="320" y="0" width="70" height="70" rx="10" fill="#fff" opacity="0.7"/><text x="355" y="45" text-anchor="middle" font-family="Poppins" font-size="24" fill="#222">20</text>
<rect x="400" y="0" width="70" height="70" rx="10" fill="#fff" opacity="0.7"/><text x="435" y="45" text-anchor="middle" font-family="Poppins" font-size="24" fill="#222">25</text>
<rect x="480" y="0" width="70" height="70" rx="10" fill="#fff" opacity="0.9"/><text x="515" y="45" text-anchor="middle" font-family="Poppins" font-size="24" fill="#222">30</text>
<rect x="560" y="0" width="70" height="70" rx="10" fill="#fff" opacity="0.7"/><text x="595" y="45" text-anchor="middle" font-family="Poppins" font-size="24" fill="#222">35</text>
<rect x="640" y="0" width="70" height="70" rx="10" fill="#fff" opacity="0.7"/><text x="675" y="45" text-anchor="middle" font-family="Poppins" font-size="24" fill="#222">40</text>
<rect x="720" y="0" width="70" height="70" rx="10" fill="#fff" opacity="0.7"/><text x="755" y="45" text-anchor="middle" font-family="Poppins" font-size="24" fill="#222">45</text>
<rect x="800" y="0" width="70" height="70" rx="10" fill="#fff" opacity="0.7"/><text x="835" y="45" text-anchor="middle" font-family="Poppins" font-size="24" fill="#222">50</text>
<rect x="880" y="0" width="70" height="70" rx="10" fill="#fff" opacity="0.7"/><text x="915" y="45" text-anchor="middle" font-family="Poppins" font-size="24" fill="#222">55</text>
    <!-- Brackets -->
    <text x="0" y="-30" fill="#fff" font-family="Poppins" font-size="28">Binary Search</text>
  </g>
  <g>
    <circle cx="1050" cy="120" r="60" fill="#ffffff22" stroke="#fff" stroke-width="4"/>
    <line x1="1015" y1="120" x2="1085" y2="120" stroke="#fff" stroke-width="6"/>
    <line x1="1050" y1="85" x2="1050" y2="155" stroke="#fff" stroke-width="6"/>
  </g>
</svg>